Coordinates
version=1
nRows=17
nColumns=34
inDegrees=yes

Units are S.I. units (second, meters, Newtons, ...)
If the header above contains a line with 'inDegrees', this indicates whether rotational values are in degrees (yes) or radians (no).

endheader
time	pelvis_tilt	pelvis_list	pelvis_rotation	pelvis_tx	pelvis_ty	pelvis_tz	hip_flexion_r	hip_adduction_r	hip_rotation_r	knee_angle_r	ankle_angle_r	subtalar_angle_r	mtp_angle_r	hip_flexion_l	hip_adduction_l	hip_rotation_l	knee_angle_l	ankle_angle_l	subtalar_angle_l	mtp_angle_l	lumbar_extension	lumbar_bending	lumbar_rotation	arm_flex_r	arm_add_r	arm_rot_r	elbow_flex_r	pro_sup_r	arm_flex_l	arm_add_l	arm_rot_l	elbow_flex_l	pro_sup_l
      3.55000000	    -14.29639981	     -1.12987514	     12.16836352	      1.81058278	      0.92127022	     -0.02795089	      8.21655985	     -6.61956531	    -25.76777517	      5.08987925	    -17.84372548	     -0.23621367	      0.00000000	     15.58384293	     -6.02434206	     -8.65003957	      4.37061012	    -19.96603774	      6.75060204	      0.00000000	      3.49190114	     -6.72402165	     13.33267489	    161.64356901	     -0.94298992	     52.88907222	     14.82192952	     55.17249714	    141.20982542	      6.15357108	     25.50982682	     64.08181204	     85.19680432
      3.56666670	    -14.17184750	     -1.25541626	     12.41905756	      1.81415177	      0.91824084	     -0.02719234	      7.85874968	     -6.35660554	    -25.67636666	      5.56350112	    -17.39773265	     -0.73552415	      0.00000000	     15.27950963	     -6.07531239	     -8.93807088	      4.50174791	    -19.72230716	      5.64310464	      0.00000000	      3.43825795	     -6.63067837	     12.33539564	    162.35926377	     -0.35274322	     53.63229108	     17.96752907	     55.84026495	    141.73323151	      4.24808435	     27.65130468	     67.18173148	     85.94777666
      3.58333330	    -14.18385229	     -1.45032442	     12.38595447	      1.81761680	      0.91272898	     -0.02708277	      7.88512008	     -6.13164830	    -25.20069548	      6.44687913	    -16.48759751	     -1.28073073	      0.00000000	     15.07293314	     -6.21972879	     -9.21804251	      4.77357512	    -18.82628736	      4.81818405	      0.00000000	      3.59068792	     -6.36746598	     11.70014795	    162.90697236	      0.29966915	     54.14120446	     20.05580516	     56.61103639	    141.93346295	      3.01573963	     28.75229644	     69.21536102	     86.55756226
      3.60000000	    -14.14748263	     -1.59408966	     12.25765100	      1.82150144	      0.90676253	     -0.02747689	      7.82614830	     -5.96102427	    -24.58228654	      7.31041735	    -15.33438321	     -2.03184099	      0.00000000	     14.70690986	     -6.32267284	     -9.28050516	      5.05778654	    -17.59296692	      3.90481123	      0.00000000	      3.74740308	     -6.10157736	     11.13094681	    163.11529969	      0.75888172	     54.63342508	     21.81713294	     57.49522666	    141.62029735	      2.27920502	     29.37500095	     71.08444230	     87.09406989
      3.61666670	    -14.13368503	     -1.73132621	     12.06613623	      1.82567491	      0.90144176	     -0.02768196	      7.74891606	     -5.77876678	    -24.09779535	      8.06382535	    -14.15224252	     -2.89606733	      0.00000000	     14.35181377	     -6.44999776	     -9.44809443	      5.41147682	    -16.40174490	      2.80715798	      0.00000000	      3.99754852	     -5.88467175	     10.46839545	    163.06131314	      0.83964285	     55.24787568	     23.53460778	     58.88522698	    140.74892455	      1.83367626	     29.69234700	     73.12402539	     87.78266275
      3.63333330	    -14.33220681	     -1.89024043	     11.89712668	      1.83005058	      0.89700856	     -0.02769371	      7.84426316	     -5.59487059	    -23.80036983	      8.75214077	    -12.78481949	     -3.71505876	      0.00000000	     14.17782582	     -6.54384212	     -9.24557823	      5.74152287	    -14.90212625	      1.92083954	      0.00000000	      4.64611370	     -5.72747402	     10.50791898	    162.74257620	      0.38341022	     56.24630662	     25.19790947	     66.75349666	    138.72274277	      2.55505682	     28.22177397	     74.79304761	     91.16022066
      3.65000000	    -13.98340201	     -1.77591715	     11.48106474	      1.83460450	      0.89475055	     -0.02720665	      7.09669605	     -5.38550400	    -22.99691170	      8.89349160	    -11.23216653	     -4.40816748	      0.00000000	     13.02752598	     -6.54659319	     -9.39911111	      5.53792876	    -13.98492312	      1.05081640	      0.00000000	      4.41724974	     -5.62404231	     10.28703932	    162.02113577	      0.40048040	     56.23656089	     27.00648789	     67.47139184	    137.01460827	      1.96977530	     28.40553885	     77.78178335	     91.40150165
      3.66666670	    -13.85841967	     -1.81900740	     11.17114310	      1.83878145	      0.89295362	     -0.02771713	      6.56318372	     -5.07656906	    -22.47201288	      8.86027675	    -10.03769934	     -5.09165979	      0.00000000	     12.33295020	     -6.66817064	     -9.29428526	      5.59007728	    -12.71757916	      0.55761866	      0.00000000	      4.64199771	     -5.35087108	     10.28315298	    160.43526859	     -0.09771866	     56.31383246	     30.05178518	     68.36442619	    133.99086462	      1.52865417	     28.17919342	     81.61508393	     91.62437132
      3.68333330	    -13.87381625	     -1.91680840	     10.85286876	      1.84227927	      0.89082776	     -0.02916687	      6.27800564	     -4.81053377	    -21.77361047	      8.91655032	     -8.78908196	     -5.74964726	      0.00000000	     11.95118638	     -6.81440828	     -9.19405309	      5.86979062	    -11.29489471	      0.38440513	      0.00000000	      4.94472024	     -5.04188384	     10.36312091	    158.42981841	     -1.27022664	     55.78790357	     34.82175513	     69.89190152	    130.43502824	      1.31979003	     27.68540629	     85.88885298	     92.01958794
      3.70000000	    -13.73528262	     -1.92395204	     10.53940005	      1.84560936	      0.88771955	     -0.03107523	      5.83416698	     -4.69551328	    -21.23886501	      8.99681121	     -7.65118550	     -6.39991203	      0.00000000	     11.30137744	     -6.82205475	     -9.17649654	      5.97191587	     -9.59758130	      0.26498367	      0.00000000	      5.12130030	     -4.68349317	     10.49645051	    155.86325273	     -2.65642631	     54.88853731	     40.52348736	     71.59894262	    126.49772642	      0.83346154	     27.54781897	     90.07453659	     92.48137148
      3.71666670	    -13.60439223	     -1.98311656	     10.18838282	      1.84938046	      0.88403521	     -0.03298287	      5.47913494	     -4.57795684	    -20.64210192	      9.23519919	     -6.60842102	     -6.87180318	      0.00000000	     10.65216114	     -6.87234514	     -9.39307879	      6.04929070	     -7.75526745	      0.08632341	      0.00000000	      5.58222644	     -4.50371707	     10.31974899	    151.75450158	     -4.79636818	     51.78934454	     48.01178456	     75.18501224	    122.28322578	      0.68300954	     27.80747243	     93.23956193	     93.48239501
      3.73333330	    -13.39809946	     -1.87708403	      9.95283812	      1.85386532	      0.88127431	     -0.03533673	      5.01627877	     -4.72585111	    -20.21155685	      9.59937606	     -5.21706151	     -7.41814268	      0.00000000	      9.98725962	     -6.71636506	     -9.57180152	      6.36672810	     -6.13152684	     -0.01235560	      0.00000000	      5.86669508	     -4.17640220	      9.79703156	    147.31025556	     -6.29808860	     49.53260116	     55.30561058	     79.13992781	    117.59918964	     -0.30049430	     27.86205408	     97.42167095	     94.44195607
      3.75000000	    -13.03445068	     -1.79421563	      9.75102450	      1.85833760	      0.88040768	     -0.03738903	      4.56416202	     -4.87800804	    -19.84553876	     10.32398279	     -4.12861082	     -7.84767122	      0.00000000	      9.20616134	     -6.62861218	     -9.58253083	      6.75288750	     -4.69329688	     -0.09180126	      0.00000000	      5.88036154	     -3.72162017	      9.23877920	    142.39082873	     -7.84248119	     48.12144637	     63.00561296	     81.88030324	    112.36150226	     -1.56866481	     27.63099209	    102.07192153	     95.05047595
      3.76666670	    -12.61524107	     -1.69504031	      9.53959567	      1.86302854	      0.88132523	     -0.03903033	      4.02974851	     -5.04225433	    -19.64256036	     11.03729205	     -3.46403635	     -8.13316482	      0.00000000	      8.26876807	     -6.54663236	     -9.68348639	      7.04566242	     -3.60552028	     -0.03714643	      0.00000000	      6.17379996	     -3.50623879	      8.73188081	    135.76546858	     -9.64490167	     45.81447638	     71.67109045	     85.16589021	    106.10091757	     -2.59301770	     27.85175149	    105.82025108	     95.87627057
      3.78333330	    -11.95716019	     -1.64608355	      9.43223819	      1.86683670	      0.88322251	     -0.04080497	      3.43879051	     -5.18112887	    -19.58850286	     12.03615688	     -3.03462441	     -8.44148173	      0.00000000	      7.13877728	     -6.54026370	     -9.59681026	      7.25479309	     -2.60786622	     -0.01160880	      0.00000000	      5.87931310	     -2.95737860	      8.28056693	    129.63294755	    -10.95474289	     45.52110470	     79.45355134	     86.72186153	     99.02077446	     -3.99211860	     27.74464580	    110.73559577	     96.26909257
      3.80000000	    -11.42277069	     -1.73861387	      9.28571206	      1.87039054	      0.88270214	     -0.04313920	      3.25555504	     -5.27759539	    -19.39849084	     13.39384861	     -2.81796246	     -8.87652081	      0.00000000	      6.25314217	     -6.68245270	     -9.83423107	      7.53294230	     -1.72144240	     -0.08074948	      0.00000000	      6.09043545	     -2.77758004	      7.42670149	    121.60084020	    -12.55948124	     43.50041217	     86.69421343	     89.14468556	     91.46849723	     -5.01447873	     28.75117994	    113.68108683	     97.11979896
      3.81666670	    -10.84559402	     -1.77543414	      9.31244529	      1.87364710	      0.88025089	     -0.04665105	      3.44570679	     -5.68566907	    -19.27454838	     15.52633375	     -2.79617313	     -9.63929824	      0.00000000	      5.34978178	     -6.66367865	     -9.60107394	      7.68732905	     -0.94625126	     -0.10585070	      0.00000000	      5.80847378	     -2.38821269	      6.47863486	    114.70053936	    -13.74617541	     42.56685387	     92.58193198	     90.83004946	     83.94459233	     -6.73534764	     29.83568926	    116.13158984	     97.80254391
